# xmcd CD database file
#
# Track frame offsets:
#	150
#	20356
#	43919
#	63722
#	94965
#	119320
#	133220
#	148077
#	173045
#	194265
#	209200
#	224222
#	238953
#
# Disc length: 3349 seconds
#
# Revision: 0
# Processed by: cddbd v1.4PL0 Copyright (c) Steve Scherf et al.
# Submitted via: CDex 1.51
#
DISCID=df0d130d
DTITLE=Michael Wolff  - Christmas Moods
DYEAR=2003
DGENRE=Jazz
TTITLE0=Let It Snow
TTITLE1=The Christmas Song
TTITLE2=What Child Is This
TTITLE3=O Christmas Tree
TTITLE4=Ave Maria
TTITLE5=Silent Night
TTITLE6=Jingle Bells
TTITLE7=Have Yourself A Merry Little Christmas
TTITLE8=The First Noel
TTITLE9=God Rest Ye Merry Gentlemen
TTITLE10=I'll Be Home For Christmas
TTITLE11=White Christmas
TTITLE12=Santa Claus Is Coming To Town
EXTD=YEAR: 2003
EXTT0=
EXTT1=
EXTT2=
EXTT3=
EXTT4=
EXTT5=
EXTT6=
EXTT7=
EXTT8=
EXTT9=
EXTT10=
EXTT11=
EXTT12=
PLAYORDER=
